<?xml version="1.0" ?><!DOCTYPE svg  PUBLIC '-//W3C//DTD SVG 1.1//EN'  'http://www.w3.org/Graphics/SVG/1.1/DTD/svg11.dtd'><svg height="21.37px" id="Capa_1" style="enable-background:new 0 0 23.198 21.37;" version="1.1" viewBox="0 0 23.198 21.37" width="23.198px" xml:space="preserve" xmlns="http://www.w3.org/2000/svg" xmlns:xlink="http://www.w3.org/1999/xlink"><g><path d="M1.849,11.368c-0.014-0.226-0.021-0.454-0.021-0.684   C1.828,4.785,6.613,0,12.513,0c5.9,0,10.685,4.785,10.685,10.685c0,5.9-4.785,10.686-10.685,10.686c-3.688,0-6.94-1.869-8.86-4.712   l2.533-1.707c1.371,2.029,3.694,3.364,6.328,3.364c4.213,0,7.631-3.417,7.631-7.631c0-4.213-3.417-7.631-7.631-7.631   c-4.214,0-7.631,3.418-7.631,7.631c0,0.23,0.01,0.459,0.03,0.684H1.849L1.849,11.368z M6.81,11.368H4.912H1.849H0l0,0l3.405,3.405   L6.81,11.368L6.81,11.368z" style="fill-rule:evenodd;clip-rule:evenodd;fill:#c5c5c5;"/></g><g/><g/><g/><g/><g/><g/><g/><g/><g/><g/><g/><g/><g/><g/><g/></svg>