<?xml version="1.0" ?><!DOCTYPE svg  PUBLIC '-//W3C//DTD SVG 1.1//EN'  'http://www.w3.org/Graphics/SVG/1.1/DTD/svg11.dtd'><svg height="21.401px" id="Capa_1" style="enable-background:new 0 0 21.42 21.401;" version="1.1" viewBox="0 0 21.42 21.401" width="21.42px" xml:space="preserve" xmlns="http://www.w3.org/2000/svg" xmlns:xlink="http://www.w3.org/1999/xlink"><path d="M3.999,0.278v1.788c0,0.169,0.142,0.325,0.312,0.346l0,0l1.452,0.165  C5.934,2.596,6.149,2.73,6.239,2.876l0,0l0.846,1.345c0.092,0.145,0.12,0.398,0.061,0.559l0,0L6.864,5.592  C6.807,5.755,6.661,5.986,6.54,6.108l0,0L6.055,6.593C5.932,6.715,5.7,6.862,5.539,6.919l0,0L4.726,7.203  c-0.162,0.055-0.415,0.028-0.56-0.065l0,0L2.821,6.296C2.675,6.201,2.54,5.986,2.52,5.817l0,0L2.345,4.239  c-0.02-0.171-0.034-0.313-0.034-0.314l0,0c0.003-0.003,0.003-0.008,0-0.012l0,0C2.307,3.908,2.162,3.906,1.99,3.906l0,0H0.278  c-0.171,0-0.295,0.142-0.276,0.311l0,0l0.317,2.827c0.02,0.171,0.153,0.387,0.3,0.477l0,0l3.207,2.016  c0.146,0.092,0.396,0.119,0.559,0.064l0,0l1.794-0.627C6.34,8.915,6.574,8.967,6.696,9.09l0,0l5.625,5.623  c0.121,0.123,0.173,0.356,0.119,0.518l0,0l-0.629,1.793c-0.056,0.163-0.029,0.415,0.064,0.562l0,0l2.014,3.203  c0.089,0.148,0.308,0.282,0.476,0.303l0,0l2.745,0.309c0.171,0.02,0.311-0.104,0.311-0.278l0,0v-1.783  c0-0.173-0.14-0.33-0.311-0.351l0,0l-1.452-0.162c-0.174-0.018-0.387-0.155-0.479-0.301l0,0l-0.845-1.344  c-0.09-0.147-0.117-0.398-0.064-0.561l0,0l0.525-1.498c0.057-0.163,0.238-0.344,0.398-0.397l0,0l1.5-0.526  c0.162-0.058,0.413-0.029,0.561,0.064l0,0l1.342,0.845c0.146,0.09,0.283,0.306,0.302,0.475l0,0l0.175,1.58  c0.02,0.17,0.035,0.311,0.035,0.314l0,0c-0.005,0.003-0.002,0.008,0,0.01l0,0c0.003,0.005,0.148,0.008,0.319,0.008l0,0h1.712  c0.173,0,0.296-0.14,0.278-0.312l0,0L21.1,14.355c-0.019-0.171-0.153-0.387-0.3-0.478l0,0l-3.207-2.013  c-0.145-0.092-0.397-0.121-0.56-0.064l0,0l-1.791,0.628c-0.165,0.058-0.396,0.005-0.519-0.116l0,0L9.098,6.687  C8.976,6.565,8.925,6.333,8.98,6.171l0,0l0.63-1.794C9.665,4.213,9.637,3.96,9.544,3.815l0,0L7.529,0.61  C7.44,0.464,7.224,0.331,7.052,0.31l0,0L4.311,0.001C4.299,0,4.286,0,4.274,0C4.121,0,3.999,0.118,3.999,0.278L3.999,0.278z" style="fill:#231F20;"/><g/><g/><g/><g/><g/><g/><g/><g/><g/><g/><g/><g/><g/><g/><g/></svg>