<?xml version="1.0" ?><svg height="24" id="svg4647" version="1.1" viewBox="0 0 6.3499999 6.3500002" width="24" xmlns="http://www.w3.org/2000/svg" xmlns:cc="http://creativecommons.org/ns#" xmlns:dc="http://purl.org/dc/elements/1.1/" xmlns:inkscape="http://www.inkscape.org/namespaces/inkscape" xmlns:rdf="http://www.w3.org/1999/02/22-rdf-syntax-ns#" xmlns:sodipodi="http://sodipodi.sourceforge.net/DTD/sodipodi-0.dtd" xmlns:svg="http://www.w3.org/2000/svg"><defs id="defs4641"/><g id="layer1" transform="translate(0,-290.64999)"><path d="M 1.058333,234.10475 C 0.47201702,234.10475 2.4999999e-8,234.57677 2.4999999e-8,235.16308 v 4.23334 c 0,0.58631 0.472016995000001,1.05833 1.058332975000001,1.05833 h 4.233334 c 0.586317,0 1.058333,-0.47202 1.058333,-1.05833 v -4.23334 c 0,-0.58631 -0.472016,-1.05833 -1.058333,-1.05833 z m 0.794267,1.05833 h 2.644283 c 0.435161,0 0.795301,0.35808 0.795301,0.79324 v 2.64635 c 0,0.43516 -0.36014,0.79271 -0.795301,0.79271 H 1.8526 c -0.435161,0 -0.794783,-0.35755 -0.794783,-0.79271 v -2.64635 c 0,-0.43516 0.359622,-0.79324 0.794783,-0.79324 z m 0,0.52969 c -0.151155,0 -0.265617,0.11239 -0.265617,0.26355 v 2.64635 c 0,0.15115 0.114462,0.26355 0.265617,0.26355 h 2.644283 c 0.151156,0 0.266134,-0.1124 0.266134,-0.26355 v -2.64635 c 0,-0.15116 -0.114978,-0.26355 -0.266134,-0.26355 z m 2.380734,0.26406 a 0.26458334,0.26458334 0 0 1 0.264583,0.26459 0.26458334,0.26458334 0 0 1 -0.264583,0.26458 0.26458334,0.26458334 0 0 1 -0.264584,-0.26458 0.26458334,0.26458334 0 0 1 0.264584,-0.26459 z M 3.175,236.22193 c 0.581368,0 1.058334,0.47697 1.058334,1.05834 0,0.58136 -0.476966,1.05885 -1.058334,1.05885 -0.581367,0 -1.05885,-0.47749 -1.05885,-1.05885 0,-0.58137 0.477483,-1.05834 1.05885,-1.05834 z m 0,0.52917 c -0.295384,0 -0.529683,0.23378 -0.529683,0.52917 0,0.29538 0.234299,0.52968 0.529683,0.52968 0.295385,0 0.529167,-0.2343 0.529167,-0.52968 0,-0.29539 -0.233782,-0.52917 -0.529167,-0.52917 z" id="rect4598" style="opacity:1;fill:#333333;fill-opacity:1;stroke:none;stroke-width:0.26458335;stroke-linecap:butt;stroke-linejoin:miter;stroke-miterlimit:4;stroke-dasharray:none;stroke-dashoffset:0;stroke-opacity:1"/><path d="M 1.0583333,290.64999 C 0.47201668,290.64999 1.4999998e-8,291.12201 1.4999998e-8,291.70832 v 4.23334 c 0,0.58631 0.472016665000002,1.05833 1.058333285000002,1.05833 h 4.2333334 c 0.5863167,0 1.0583333,-0.47202 1.0583333,-1.05833 v -4.23334 c 0,-0.58631 -0.4720166,-1.05833 -1.0583333,-1.05833 z m 3.9444613,1.51257 c 0.1385597,0.0112 0.1791176,0.14301 0.1457272,0.29766 l -0.6185667,2.86494 c -0.040235,0.18632 -0.180176,0.20932 -0.3488161,0.0863 l -0.8738473,-0.63769 -0.4800732,0.46354 c -0.075311,0.0726 -0.2152518,0.0937 -0.2568337,-0.0336 l -0.3601853,-1.10433 -0.8516249,-0.26872 c -0.3283559,-0.10372 -0.093163,-0.25083 0.018097,-0.29403 l 3.4540534,-1.34101 c 0.068837,-0.0267 0.125902,-0.0363 0.1720824,-0.0326 z m -0.6128808,0.59635 c -0.020982,0.004 -0.044556,0.0127 -0.066146,0.0263 l -1.9487198,1.23507 c -0.011642,0.007 -0.02458,0.006 -0.012409,0.0434 l 0.3152246,0.96738 0.06408,-0.65733 c 0.00132,-0.0127 0.00185,-0.021 0.016007,-0.0336 l 1.6453777,-1.47691 c 0.0909,-0.0816 0.049443,-0.11553 -0.013441,-0.10438 z" id="rect5234" style="opacity:1;fill:#333333;fill-opacity:1;stroke:none;stroke-width:0.26458335;stroke-linecap:butt;stroke-linejoin:miter;stroke-miterlimit:4;stroke-dasharray:none;stroke-dashoffset:0;stroke-opacity:1"/></g></svg>